<svg width="35" height="35" viewBox="0 0 35 35" fill="none" xmlns="http://www.w3.org/2000/svg">
<g id="file / cloud_down" clip-path="url(#clip0_1_244)">
<path id="file / cloud_down_2" d="M27.7084 29.1668H8.75002C4.19181 29.1695 0.395072 25.6724 0.0238823 21.1293C-0.347307 16.5862 2.83141 12.5192 7.3296 11.782C9.40001 8.11117 13.2856 5.83854 17.5 5.83333C20.128 5.8234 22.6807 6.71031 24.7363 8.34759C26.7547 9.94863 28.1898 12.1698 28.8196 14.668C32.5878 15.247 35.2739 18.6311 34.9825 22.4323C34.6912 26.2336 31.5208 29.1688 27.7084 29.1668ZM17.5 8.75007C14.3379 8.75381 11.4227 10.4594 9.87002 13.214L9.18752 14.4376L7.80356 14.6636C4.81439 15.1644 2.7067 17.8709 2.95346 20.8917C3.20021 23.9125 5.7192 26.241 8.75002 26.2501H27.7084C29.9959 26.2524 31.899 24.4922 32.0749 22.2115C32.2508 19.9307 30.64 17.8995 28.3792 17.5511L26.46 17.2595L25.9904 15.3753C25.021 11.4769 21.5171 8.74273 17.5 8.75007ZM17.5 23.3334L11.6667 17.5001H15.3854V13.1251H19.6146V17.5001H23.3334L17.5 23.3334Z" fill="white"/>
</g>
<defs>
<clipPath id="clip0_1_244">
<rect width="35" height="35" fill="white"/>
</clipPath>
</defs>
</svg>
