<svg width="35" height="35" viewBox="0 0 35 35" fill="none" xmlns="http://www.w3.org/2000/svg">
<g id="arrow / circle_down">
<path id="arrow / circle_down_2" d="M17.5 32.0834C9.44584 32.0834 2.91666 25.5542 2.91666 17.5001C2.91666 9.44593 9.44584 2.91675 17.5 2.91675C25.5541 2.91675 32.0833 9.44593 32.0833 17.5001C32.0745 25.5506 25.5505 32.0746 17.5 32.0834ZM17.5 5.83342C11.0567 5.83342 5.83332 11.0568 5.83332 17.5001C5.83332 23.9434 11.0567 29.1668 17.5 29.1668C23.9433 29.1668 29.1667 23.9434 29.1667 17.5001C29.1594 11.0598 23.9403 5.84065 17.5 5.83342ZM17.5 24.7917L10.2083 17.5001L12.2646 15.4438L16.0417 19.2063V10.2084H18.9583V19.2063L22.7354 15.4438L24.7917 17.5001L17.5 24.7917Z" fill="#202020"/>
</g>
</svg>
